<svg width="123" height="62" viewBox="0 0 123 62" fill="none" xmlns="http://www.w3.org/2000/svg">
<g clip-path="url(#clip0_2390_1458)">
<path d="M12.371 51.9712L9.18075 48.7879L13.1111 44.8661H8.42068C3.47028 44.8661 0 41.5331 0 36.7731V30.9453H4.81039L4.82039 36.1245C4.82039 38.6192 6.46053 40.3556 8.82072 40.3556H13.1011L9.17075 36.4438L12.361 33.2505L18.3815 39.2579C20.2316 41.104 20.2316 44.1177 18.3815 45.9638L12.371 51.9712Z" fill="#C82A87"/>
<path d="M0 0H5.82047L12.841 16.7948L19.8916 0H25.6821V24.0396H20.8617V9.37035L14.7612 24.0396H10.9409L4.82039 9.37035V24.0396H0V0Z" fill="#0F19A0"/>
<path fill-rule="evenodd" clip-rule="evenodd" d="M37.2838 6.45703C31.9434 6.45703 28.123 10.2391 28.123 15.3883C28.123 20.5375 31.9434 24.3196 37.2838 24.3196C42.6242 24.3196 46.4445 20.5375 46.4445 15.3883C46.4445 10.2391 42.6242 6.45703 37.2838 6.45703ZM37.2731 10.5481C39.8531 10.5481 41.6131 12.5039 41.6131 15.3876C41.6131 18.2314 39.8631 20.1971 37.2731 20.1971C34.6931 20.1971 32.9331 18.2414 32.9331 15.3876C32.9331 12.5039 34.6931 10.5481 37.2731 10.5481Z" fill="#0F19A0"/>
<path d="M48.3945 6.72473H53.2149V9.12968C54.175 7.44322 56.1052 6.44531 58.4854 6.44531C62.4057 6.44531 64.9559 9.25941 64.9559 13.251V24.0384H60.1355V14.3188C60.1355 12.2232 58.7954 10.7164 56.7952 10.7164C54.695 10.7164 53.2149 12.333 53.2149 14.5683V24.0484H48.3945V6.72473Z" fill="#0F19A0"/>
<path fill-rule="evenodd" clip-rule="evenodd" d="M75.9754 24.3196C80.2458 24.3196 83.546 21.9146 84.2361 18.1725H79.5457C79.1657 19.6494 77.8956 20.4078 75.9654 20.4078C73.5552 20.4078 72.0051 18.891 71.6651 16.4561H84.1261C84.1661 16.0769 84.1961 15.5579 84.1961 14.9093C84.1961 10.9576 81.7559 6.45703 75.6254 6.45703C69.7349 6.45703 67.0547 10.9576 67.0547 15.3584C67.0547 19.7192 70.0849 24.3196 75.9754 24.3196ZM79.4146 13.4318H71.7346C72.1546 11.0271 73.4546 9.9594 75.6246 9.9594C77.9346 9.9594 79.2746 11.506 79.4146 13.4318Z" fill="#0F19A0"/>
<path d="M95.558 23.9704L93.1178 31.0456H88.5374L91.0876 23.9006L84.7871 6.72656H89.6775L93.3178 17.8931L96.9381 6.72656H101.858L95.558 23.9704Z" fill="#0F19A0"/>
<path d="M42.5238 30.9453V54.9949H37.3234V44.926H27.4026V54.9949H22.2422V30.9453H27.4026V40.4953H37.3234V30.9453H42.5238Z" fill="#0F19A0"/>
<path fill-rule="evenodd" clip-rule="evenodd" d="M53.8446 55.2649C58.1149 55.2649 61.4152 52.8599 62.1052 49.1178H57.4148C57.0348 50.5947 55.7647 51.3531 53.8346 51.3531C51.4244 51.3531 49.8742 49.8363 49.5342 47.4014H61.9952C62.0352 47.0222 62.0652 46.5033 62.0652 45.8546C62.0652 41.9029 59.625 37.4023 53.4945 37.4023C47.604 37.4023 44.9238 41.9029 44.9238 46.3037C44.9238 50.6645 47.9541 55.2649 53.8446 55.2649ZM57.2838 44.3772H49.6038C50.0238 41.9724 51.3338 40.9147 53.4938 40.9047C55.8038 40.9047 57.1438 42.4513 57.2838 44.3772Z" fill="#0F19A0"/>
<path d="M69.5756 30.1562H64.7852V54.9941H69.5756V30.1562Z" fill="#0F19A0"/>
<path fill-rule="evenodd" clip-rule="evenodd" d="M77.4154 37.6818H72.635H72.625V62.0008H77.4054V53.4487C78.3355 54.6162 80.0256 55.2649 81.9858 55.2649C86.9862 55.2649 90.3564 51.7223 90.3564 46.3336C90.3564 40.9449 87.2562 37.4023 82.4058 37.4023C80.1656 37.4023 78.4455 38.2306 77.4154 39.5678V37.6818ZM81.415 41.5034C83.925 41.5034 85.645 43.4192 85.645 46.3429C85.645 49.2266 83.925 51.1424 81.415 51.1524C78.835 51.1524 77.145 49.2266 77.145 46.3429C77.145 43.4292 78.835 41.5034 81.415 41.5034Z" fill="#0F19A0"/>
<path fill-rule="evenodd" clip-rule="evenodd" d="M101.009 55.2649C105.279 55.2649 108.579 52.8599 109.269 49.1178H104.579C104.199 50.5947 102.929 51.3531 100.999 51.3531C98.5884 51.3531 97.0383 49.8363 96.6983 47.4014H109.159C109.199 47.0222 109.229 46.5033 109.229 45.8546C109.229 41.9029 106.789 37.4023 100.659 37.4023C94.7681 37.4023 92.0879 41.9029 92.0879 46.3037C92.0879 50.6645 95.1181 55.2649 101.009 55.2649ZM104.448 44.3772H96.7679C97.1879 41.9724 98.4879 40.9147 100.658 40.9047C102.968 40.9047 104.308 42.4513 104.448 44.3772Z" fill="#0F19A0"/>
<path d="M120.14 41.6613C117.759 41.6613 116.699 43.6172 116.699 46.571V54.9834H111.879V37.6797H116.699V40.5636C117.629 38.3982 118.939 37.6797 121.04 37.6797H123V41.6613H120.14Z" fill="#0F19A0"/>
</g>
<defs>
<clipPath id="clip0_2390_1458">
<rect width="123" height="62" fill="white"/>
</clipPath>
</defs>
</svg>
